<svg xmlns="http://www.w3.org/2000/svg" version="1.1" xmlns:xlink="http://www.w3.org/1999/xlink" viewBox="0 0 200 200" width="200" height="200"><metadata><rdf:RDF xmlns:rdf="http://www.w3.org/1999/02/22-rdf-syntax-ns#" xmlns:dc="http://purl.org/dc/elements/1.1/"><rdf:Description><dc:creator>RealFaviconGenerator</dc:creator><dc:source>https://realfavicongenerator.net</dc:source></rdf:Description></rdf:RDF></metadata><rect width="200" height="200" fill="url('#gradient')"></rect><defs><linearGradient id="gradient" gradientTransform="rotate(45 0.5 0.5)"><stop offset="0%" stop-color="#583de1"></stop><stop offset="100%" stop-color="#0107bf"></stop></linearGradient></defs><g><g fill="#ffffff" transform="matrix(3.9406904357668364,0,0,3.9406904357668364,27.767065360077908,123.58635937345858)" stroke="#1344ca" stroke-width="0.3"><path d="M12.95-14.22L12.95 0L9.54 0L4.50-8.85L4.50 0L1.07 0L1.07-14.22L4.50-14.22L9.53-5.37L9.53-14.22L12.95-14.22ZM22.86 0L22.86 2.45L14.04 2.45L14.04 0L22.86 0ZM35.59-7.60L35.59-1.76Q34.79-0.88 33.27-0.34Q31.75 0.20 29.93 0.20L29.93 0.20Q27.14 0.20 25.47-1.51Q23.80-3.22 23.68-6.27L23.68-6.27L23.67-7.50Q23.67-9.60 24.41-11.17Q25.16-12.73 26.54-13.58Q27.92-14.42 29.74-14.42L29.74-14.42Q32.39-14.42 33.86-13.21Q35.33-11.99 35.58-9.58L35.58-9.58L32.28-9.58Q32.10-10.77 31.51-11.28Q30.93-11.79 29.85-11.79L29.85-11.79Q28.56-11.79 27.86-10.69Q27.16-9.60 27.15-7.57L27.15-7.57L27.15-6.71Q27.15-4.58 27.88-3.51Q28.60-2.44 30.17-2.44L30.17-2.44Q31.50-2.44 32.16-3.04L32.16-3.04L32.16-5.24L29.78-5.24L29.78-7.60L35.59-7.60Z"></path></g></g></svg>